<?xml version="1.0" standalone="no"?>
<svg xmlns="http://www.w3.org/2000/svg" xmlns:xlink="http://www.w3.org/1999/xlink" width="500pt" height="1172pt" viewBox="0.00 0.00 499.87 1172.00">
<g id="graph0" class="graph" transform="translate(4,1168) scale(1)" data-name="G">

<polygon fill="#2e3e56" stroke="transparent" points="-4,4 -4,-1168 495.87,-1168 495.87,4 -4,4" style=""/>
<g id="clust1" class="cluster" data-name="clusterDynamicGameFacet">

<path fill="#445773" stroke="#445773" d="M20,-402C20,-402 452.54,-402 452.54,-402 458.54,-402 464.54,-408 464.54,-414 464.54,-414 464.54,-1007 464.54,-1007 464.54,-1013 458.54,-1019 452.54,-1019 452.54,-1019 20,-1019 20,-1019 14,-1019 8,-1013 8,-1007 8,-1007 8,-414 8,-414 8,-408 14,-402 20,-402" style=""/>
<text text-anchor="middle" x="236.27" y="-1002.4" font-family="Times,serif" font-size="14.00" fill="#f0f0f0" style="">DynamicGameFacet</text>
</g>
<g id="clust2" class="cluster" data-name="clusterLibDiamond">

<path fill="#3b4b63" stroke="#e8726d" stroke-dasharray="5,2" d="M266.86,-317C266.86,-317 471.84,-317 471.84,-317 477.84,-317 483.84,-323 483.84,-329 483.84,-329 483.84,-382 483.84,-382 483.84,-388 477.84,-394 471.84,-394 471.84,-394 266.86,-394 266.86,-394 260.86,-394 254.86,-388 254.86,-382 254.86,-382 254.86,-329 254.86,-329 254.86,-323 260.86,-317 266.86,-317" style=""/>
<text text-anchor="middle" x="369.35" y="-377.4" font-family="Times,serif" font-size="14.00" fill="#f0f0f0" style="">LibDiamond</text>
</g>
<g id="clust3" class="cluster" data-name="clusterconsole">

<path fill="#3b4b63" stroke="#e8726d" stroke-dasharray="5,2" d="M346.35,-232C346.35,-232 392.35,-232 392.35,-232 398.35,-232 404.35,-238 404.35,-244 404.35,-244 404.35,-297 404.35,-297 404.35,-303 398.35,-309 392.35,-309 392.35,-309 346.35,-309 346.35,-309 340.35,-309 334.35,-303 334.35,-297 334.35,-297 334.35,-244 334.35,-244 334.35,-238 340.35,-232 346.35,-232" style=""/>
<text text-anchor="middle" x="369.35" y="-292.4" font-family="Times,serif" font-size="14.00" fill="#f0f0f0" style="">console</text>
</g>
<g id="clust4" class="cluster" data-name="clusterStrings">

<path fill="#3b4b63" stroke="#e8726d" stroke-dasharray="5,2" d="M331.2,-147C331.2,-147 407.51,-147 407.51,-147 413.51,-147 419.51,-153 419.51,-159 419.51,-159 419.51,-212 419.51,-212 419.51,-218 413.51,-224 407.51,-224 407.51,-224 331.2,-224 331.2,-224 325.2,-224 319.2,-218 319.2,-212 319.2,-212 319.2,-159 319.2,-159 319.2,-153 325.2,-147 331.2,-147" style=""/>
<text text-anchor="middle" x="369.35" y="-207.4" font-family="Times,serif" font-size="14.00" fill="#f0f0f0" style="">Strings</text>
</g>
<g id="clust5" class="cluster" data-name="clusterLibERC721">

<path fill="#3b4b63" stroke="#e8726d" stroke-dasharray="5,2" d="M266.84,-8C266.84,-8 471.87,-8 471.87,-8 477.87,-8 483.87,-14 483.87,-20 483.87,-20 483.87,-127 483.87,-127 483.87,-133 477.87,-139 471.87,-139 471.87,-139 266.84,-139 266.84,-139 260.84,-139 254.84,-133 254.84,-127 254.84,-127 254.84,-20 254.84,-20 254.84,-14 260.84,-8 266.84,-8" style=""/>
<text text-anchor="middle" x="369.35" y="-122.4" font-family="Times,serif" font-size="14.00" fill="#f0f0f0" style="">LibERC721</text>
</g>
<g id="clust6" class="cluster" data-name="cluster_01">

<polygon fill="#2e3e56" stroke="black" points="48.42,-1027 48.42,-1156 404.35,-1156 404.35,-1027 48.42,-1027" style=""/>
<text text-anchor="middle" x="226.39" y="-1139.4" font-family="Times,serif" font-size="14.00" style="">Legend</text>
</g>
<!-- DynamicGameFacet.updateFee -->
<g id="node1" class="node" pointer-events="visible" data-name="DynamicGameFacet.updateFee">

<ellipse fill="#ffbdb9" stroke="#ffbdb9" stroke-width="3" cx="121.42" cy="-860" rx="50.94" ry="18" style=""/>
<text text-anchor="middle" x="121.42" y="-855.8" font-family="Times,serif" font-size="14.00" style="">updateFee</text>
</g>
<!-- LibDiamond.enforceIsContractOwner -->
<g id="node14" class="node" pointer-events="visible" data-name="LibDiamond.enforceIsContractOwner">

<ellipse fill="#edad56" stroke="#edad56" stroke-width="3" cx="369.35" cy="-343" rx="106.48" ry="18" style=""/>
<text text-anchor="middle" x="369.35" y="-338.8" font-family="Times,serif" font-size="14.00" style="">enforceIsContractOwner</text>
</g>
<!-- DynamicGameFacet.updateFee&#45;&gt;LibDiamond.enforceIsContractOwner -->
<g id="edge1" class="edge" data-name="DynamicGameFacet.updateFee-&gt;LibDiamond.enforceIsContractOwner">

<path fill="none" stroke="white" stroke-width="2" d="M172.22,-859.24C192.2,-856.22 213.59,-849.02 226.84,-833 288.57,-758.35 200.79,-478.39 254.84,-398 265.71,-381.83 282.74,-370.25 300.33,-362.03" style=""/>
<polygon fill="white" stroke="white" stroke-width="2" points="301.77,-365.22 309.56,-358.03 298.99,-358.8 301.77,-365.22" style=""/>
</g>
<!-- DynamicGameFacet.mintCharacterNFT -->
<g id="node2" class="node" pointer-events="visible" data-name="DynamicGameFacet.mintCharacterNFT">

<ellipse fill="#ffbdb9" stroke="brown" stroke-width="3" cx="121.42" cy="-968" rx="84.53" ry="18" style=""/>
<text text-anchor="middle" x="121.42" y="-963.8" font-family="Times,serif" font-size="14.00" style="">mintCharacterNFT</text>
</g>
<!-- DynamicGameFacet._safeMint -->
<g id="node12" class="node" pointer-events="visible" data-name="DynamicGameFacet._safeMint">

<ellipse fill="#edad56" stroke="#edad56" stroke-width="3" cx="369.35" cy="-914" rx="50.39" ry="18" style=""/>
<text text-anchor="middle" x="369.35" y="-909.8" font-family="Times,serif" font-size="14.00" style="">_safeMint</text>
</g>
<!-- DynamicGameFacet.mintCharacterNFT&#45;&gt;DynamicGameFacet._safeMint -->
<g id="edge2" class="edge" data-name="DynamicGameFacet.mintCharacterNFT-&gt;DynamicGameFacet._safeMint">

<path fill="none" stroke="#1bc6a6" stroke-width="2" d="M181.01,-955.13C222.05,-946.12 276.41,-934.19 316,-925.49" style=""/>
<polygon fill="#1bc6a6" stroke="#1bc6a6" stroke-width="2" points="316.97,-928.87 325.99,-923.3 315.47,-922.03 316.97,-928.87" style=""/>
</g>
<!-- DynamicGameFacet.CharacterAttributes -->
<g id="node13" class="node" pointer-events="visible" data-name="DynamicGameFacet.CharacterAttributes">

<ellipse fill="#edad56" stroke="#edad56" stroke-width="3" cx="369.35" cy="-968" rx="87.38" ry="18" style=""/>
<text text-anchor="middle" x="369.35" y="-963.8" font-family="Times,serif" font-size="14.00" style="">CharacterAttributes</text>
</g>
<!-- DynamicGameFacet.mintCharacterNFT&#45;&gt;DynamicGameFacet.CharacterAttributes -->
<g id="edge3" class="edge" data-name="DynamicGameFacet.mintCharacterNFT-&gt;DynamicGameFacet.CharacterAttributes">

<path fill="none" stroke="#1bc6a6" stroke-width="2" d="M206.02,-968C227.18,-968 250.08,-968 271.82,-968" style=""/>
<polygon fill="#1bc6a6" stroke="#1bc6a6" stroke-width="2" points="272.05,-971.5 282.05,-968 272.05,-964.5 272.05,-971.5" style=""/>
</g>
<!-- console.log -->
<g id="node15" class="node" pointer-events="visible" data-name="console.log">

<ellipse fill="#edad56" stroke="#edad56" stroke-width="3" cx="369.35" cy="-258" rx="27" ry="18" style=""/>
<text text-anchor="middle" x="369.35" y="-253.8" font-family="Times,serif" font-size="14.00" style="">log</text>
</g>
<!-- DynamicGameFacet.mintCharacterNFT&#45;&gt;console.log -->
<g id="edge4" class="edge" data-name="DynamicGameFacet.mintCharacterNFT-&gt;console.log">

<path fill="none" stroke="white" stroke-width="2" d="M198.57,-960.62C209.47,-956.35 219.47,-950.09 226.84,-941 270.82,-886.74 216.44,-371.34 254.84,-313 272.37,-286.35 306.71,-272.22 333.04,-264.99" style=""/>
<polygon fill="white" stroke="white" stroke-width="2" points="334.21,-268.31 343.05,-262.47 332.5,-261.52 334.21,-268.31" style=""/>
</g>
<!-- DynamicGameFacet.tokenURI -->
<g id="node3" class="node" pointer-events="visible" data-name="DynamicGameFacet.tokenURI">

<ellipse fill="#ff9797" stroke="#ff9797" stroke-width="3" cx="121.42" cy="-590" rx="49.24" ry="18" style=""/>
<text text-anchor="middle" x="121.42" y="-585.8" font-family="Times,serif" font-size="14.00" style="">tokenURI</text>
</g>
<!-- Strings.toString -->
<g id="node16" class="node" pointer-events="visible" data-name="Strings.toString">

<ellipse fill="#edad56" stroke="#edad56" stroke-width="3" cx="369.35" cy="-173" rx="42.32" ry="18" style=""/>
<text text-anchor="middle" x="369.35" y="-168.8" font-family="Times,serif" font-size="14.00" style="">toString</text>
</g>
<!-- DynamicGameFacet.tokenURI&#45;&gt;Strings.toString -->
<g id="edge5" class="edge" data-name="DynamicGameFacet.tokenURI-&gt;Strings.toString">

<path fill="none" stroke="white" stroke-width="2" d="M139.61,-573.18C163.26,-564.58 205.35,-561.48 226.84,-536 274.99,-478.89 212.56,-262.59 254.84,-201 273.35,-174.02 308.92,-159.8 335.33,-158" style=""/>
<polygon fill="white" stroke="white" stroke-width="2" points="335.67,-161.5 345.66,-157.97 335.65,-154.5 335.67,-161.5" style=""/>
</g>
<!-- DynamicGameFacet.tokenURI&#45;&gt;Strings.toString -->
<g id="edge6" class="edge" data-name="DynamicGameFacet.tokenURI-&gt;Strings.toString">

<path fill="none" stroke="white" stroke-width="2" d="M165.66,-581.96C187.3,-578.53 211.99,-571.61 226.84,-554 274.99,-496.89 212.56,-280.59 254.84,-219 269.42,-197.75 294.59,-184.42 317.52,-177.08" style=""/>
<polygon fill="white" stroke="white" stroke-width="2" points="318.54,-180.43 327.18,-174.3 316.6,-173.71 318.54,-180.43" style=""/>
</g>
<!-- DynamicGameFacet.tokenURI&#45;&gt;Strings.toString -->
<g id="edge7" class="edge" data-name="DynamicGameFacet.tokenURI-&gt;Strings.toString">

<path fill="none" stroke="white" stroke-width="2" d="M165.66,-597.97C187.3,-596.53 211.99,-589.61 226.84,-572 274.99,-514.89 212.56,-298.59 254.84,-237 272.03,-211.94 303.94,-197.89 329.56,-188.84" style=""/>
<polygon fill="white" stroke="white" stroke-width="2" points="330.7,-192.15 339.03,-185.61 328.43,-185.53 330.7,-192.15" style=""/>
</g>
<!-- DynamicGameFacet.tokenURI&#45;&gt;Strings.toString -->
<g id="edge8" class="edge" data-name="DynamicGameFacet.tokenURI-&gt;Strings.toString">

<path fill="none" stroke="white" stroke-width="2" d="M135.8,-607.3C158.47,-618.86 204.14,-616.91 226.84,-590 274.99,-532.89 212.56,-316.59 254.84,-255 276.25,-223.8 320.47,-209.66 346.95,-195.47" style=""/>
<polygon fill="white" stroke="white" stroke-width="2" points="349.02,-198.31 355.83,-190.2 345.45,-192.29 349.02,-198.31" style=""/>
</g>
<!-- DynamicGameFacet.attackBoss -->
<g id="node4" class="node" pointer-events="visible" data-name="DynamicGameFacet.attackBoss">

<ellipse fill="#ff9797" stroke="#ff9797" stroke-width="3" cx="121.42" cy="-806" rx="52.75" ry="18" style=""/>
<text text-anchor="middle" x="121.42" y="-801.8" font-family="Times,serif" font-size="14.00" style="">attackBoss</text>
</g>
<!-- DynamicGameFacet.attackBoss&#45;&gt;console.log -->
<g id="edge9" class="edge" data-name="DynamicGameFacet.attackBoss-&gt;console.log">

<path fill="none" stroke="white" stroke-width="2" d="M140.09,-789.11C163.92,-780.7 205.77,-777.58 226.84,-752 292.78,-671.92 197.13,-372.21 254.84,-286 274.75,-256.25 315.52,-242.07 342.39,-242.73" style=""/>
<polygon fill="white" stroke="white" stroke-width="2" points="342.29,-246.24 352.61,-243.85 343.05,-239.28 342.29,-246.24" style=""/>
</g>
<!-- DynamicGameFacet.attackBoss&#45;&gt;console.log -->
<g id="edge10" class="edge" data-name="DynamicGameFacet.attackBoss-&gt;console.log">

<path fill="none" stroke="white" stroke-width="2" d="M168.49,-797.67C189.51,-794.13 212.79,-787.06 226.84,-770 292.78,-689.92 197.13,-390.21 254.84,-304 272.36,-277.81 306.05,-263.69 332.2,-257.94" style=""/>
<polygon fill="white" stroke="white" stroke-width="2" points="332.97,-261.35 342.15,-256.08 331.68,-254.47 332.97,-261.35" style=""/>
</g>
<!-- DynamicGameFacet.attackBoss&#45;&gt;console.log -->
<g id="edge11" class="edge" data-name="DynamicGameFacet.attackBoss-&gt;console.log">

<path fill="none" stroke="white" stroke-width="2" d="M169.02,-813.86C189.9,-812 212.91,-804.91 226.84,-788 292.78,-707.92 197.13,-408.21 254.84,-322 273.41,-294.24 310.15,-280.04 336.81,-271.19" style=""/>
<polygon fill="white" stroke="white" stroke-width="2" points="338.05,-274.46 346.47,-268.04 335.88,-267.81 338.05,-274.46" style=""/>
</g>
<!-- DynamicGameFacet.attackBoss&#45;&gt;console.log -->
<g id="edge12" class="edge" data-name="DynamicGameFacet.attackBoss-&gt;console.log">

<path fill="none" stroke="white" stroke-width="2" d="M135.87,-823.36C158.63,-835 204.46,-833.17 226.84,-806 292.78,-725.92 197.13,-426.21 254.84,-340 276.32,-307.91 322.07,-293.93 348.46,-279.51" style=""/>
<polygon fill="white" stroke="white" stroke-width="2" points="350.52,-282.35 357.23,-274.15 346.87,-276.38 350.52,-282.35" style=""/>
</g>
<!-- DynamicGameFacet.checkIfUserHasNFT -->
<g id="node5" class="node" pointer-events="visible" data-name="DynamicGameFacet.checkIfUserHasNFT">

<ellipse fill="#ff9797" stroke="#ff9797" stroke-width="3" cx="121.42" cy="-752" rx="91.46" ry="18" style=""/>
<text text-anchor="middle" x="121.42" y="-747.8" font-family="Times,serif" font-size="14.00" style="">checkIfUserHasNFT</text>
</g>
<!-- DynamicGameFacet.getBigBoss -->
<g id="node6" class="node" pointer-events="visible" data-name="DynamicGameFacet.getBigBoss">

<ellipse fill="#ff9797" stroke="#ff9797" stroke-width="3" cx="121.42" cy="-698" rx="55.65" ry="18" style=""/>
<text text-anchor="middle" x="121.42" y="-693.8" font-family="Times,serif" font-size="14.00" style="">getBigBoss</text>
</g>
<!-- DynamicGameFacet.getAllDefaultCharacters -->
<g id="node7" class="node" pointer-events="visible" data-name="DynamicGameFacet.getAllDefaultCharacters">

<ellipse fill="#ffbdb9" stroke="#ffbdb9" stroke-width="3" cx="121.42" cy="-644" rx="105.34" ry="18" style=""/>
<text text-anchor="middle" x="121.42" y="-639.8" font-family="Times,serif" font-size="14.00" style="">getAllDefaultCharacters</text>
</g>
<!-- DynamicGameFacet.withdraw -->
<g id="node8" class="node" pointer-events="visible" data-name="DynamicGameFacet.withdraw">

<ellipse fill="#ffbdb9" stroke="#ffbdb9" stroke-width="3" cx="121.42" cy="-914" rx="47.52" ry="18" style=""/>
<text text-anchor="middle" x="121.42" y="-909.8" font-family="Times,serif" font-size="14.00" style="">withdraw</text>
</g>
<!-- DynamicGameFacet.withdraw&#45;&gt;LibDiamond.enforceIsContractOwner -->
<g id="edge13" class="edge" data-name="DynamicGameFacet.withdraw-&gt;LibDiamond.enforceIsContractOwner">

<path fill="none" stroke="white" stroke-width="2" d="M169.04,-913.74C189.93,-911.03 212.93,-903.93 226.84,-887 295.91,-802.88 194.42,-488.54 254.84,-398 265.65,-381.79 282.67,-370.2 300.26,-361.98" style=""/>
<polygon fill="white" stroke="white" stroke-width="2" points="301.7,-365.18 309.48,-357.99 298.92,-358.75 301.7,-365.18" style=""/>
</g>
<!-- DynamicGameFacet.nftHolders -->
<g id="node9" class="node" pointer-events="visible" data-name="DynamicGameFacet.nftHolders">

<ellipse fill="#ffbdb9" stroke="#ffbdb9" stroke-width="3" cx="121.42" cy="-482" rx="52.18" ry="18" style=""/>
<text text-anchor="middle" x="121.42" y="-477.8" font-family="Times,serif" font-size="14.00" style="">nftHolders</text>
</g>
<!-- LibERC721.getNFTHolders -->
<g id="node17" class="node" pointer-events="visible" data-name="LibERC721.getNFTHolders">

<ellipse fill="#edad56" stroke="#edad56" stroke-width="3" cx="369.35" cy="-34" rx="71.8" ry="18" style=""/>
<text text-anchor="middle" x="369.35" y="-29.8" font-family="Times,serif" font-size="14.00" style="">getNFTHolders</text>
</g>
<!-- DynamicGameFacet.nftHolders&#45;&gt;LibERC721.getNFTHolders -->
<g id="edge14" class="edge" data-name="DynamicGameFacet.nftHolders-&gt;LibERC721.getNFTHolders">

<path fill="none" stroke="white" stroke-width="2" d="M173.79,-480.94C193.29,-477.77 213.9,-470.54 226.84,-455 283,-387.55 198.01,-127.9 254.84,-61 263.61,-50.66 275.56,-43.89 288.42,-39.52" style=""/>
<polygon fill="white" stroke="white" stroke-width="2" points="289.77,-42.77 298.4,-36.62 287.82,-36.05 289.77,-42.77" style=""/>
</g>
<!-- DynamicGameFacet.nftHolderAttributes -->
<g id="node10" class="node" pointer-events="visible" data-name="DynamicGameFacet.nftHolderAttributes">

<ellipse fill="#ffbdb9" stroke="#ffbdb9" stroke-width="3" cx="121.42" cy="-536" rx="87.41" ry="18" style=""/>
<text text-anchor="middle" x="121.42" y="-531.8" font-family="Times,serif" font-size="14.00" style="">nftHolderAttributes</text>
</g>
<!-- LibERC721.getNFTHolderAttributes -->
<g id="node18" class="node" pointer-events="visible" data-name="LibERC721.getNFTHolderAttributes">

<ellipse fill="#edad56" stroke="#edad56" stroke-width="3" cx="369.35" cy="-88" rx="106.53" ry="18" style=""/>
<text text-anchor="middle" x="369.35" y="-83.8" font-family="Times,serif" font-size="14.00" style="">getNFTHolderAttributes</text>
</g>
<!-- DynamicGameFacet.nftHolderAttributes&#45;&gt;LibERC721.getNFTHolderAttributes -->
<g id="edge15" class="edge" data-name="DynamicGameFacet.nftHolderAttributes-&gt;LibERC721.getNFTHolderAttributes">

<path fill="none" stroke="white" stroke-width="2" d="M199.63,-527.9C210.06,-523.67 219.62,-517.61 226.84,-509 279.2,-446.46 208.91,-210.42 254.84,-143 265.86,-126.82 283.03,-115.23 300.71,-107" style=""/>
<polygon fill="white" stroke="white" stroke-width="2" points="302.18,-110.18 309.97,-103 299.4,-103.75 302.18,-110.18" style=""/>
</g>
<!-- DynamicGameFacet.totalTokens -->
<g id="node11" class="node" pointer-events="visible" data-name="DynamicGameFacet.totalTokens">

<ellipse fill="#ffbdb9" stroke="#ffbdb9" stroke-width="3" cx="121.42" cy="-428" rx="56.76" ry="18" style=""/>
<text text-anchor="middle" x="121.42" y="-423.8" font-family="Times,serif" font-size="14.00" style="">totalTokens</text>
</g>
<!-- key -->
<g id="node19" class="node" pointer-events="visible" data-name="key">

<polygon fill="#edad56" stroke="transparent" stroke-width="3" points="186.42,-1123 56.42,-1123 56.42,-1035 186.42,-1035 186.42,-1123" style=""/>
<text text-anchor="start" x="106.06" y="-1104.4" font-family="Times,serif" font-size="14.00" style="">Internal Call</text>
<text text-anchor="start" x="102.17" y="-1084.4" font-family="Times,serif" font-size="14.00" style="">External Call</text>
<text text-anchor="start" x="79.62" y="-1064.4" font-family="Times,serif" font-size="14.00" style="">Defined Contract</text>
<text text-anchor="start" x="66.02" y="-1044.4" font-family="Times,serif" font-size="14.00" style="">Undefined Contract</text>
</g>
<!-- key2 -->
<g id="node20" class="node" pointer-events="visible" data-name="key2">

<polygon fill="#edad56" stroke="transparent" stroke-width="3" points="396.35,-1123 342.35,-1123 342.35,-1035 396.35,-1035 396.35,-1123" style=""/>
<text text-anchor="start" x="359.35" y="-1104.4" font-family="Times,serif" font-size="14.00" style="">   </text>
<text text-anchor="start" x="359.35" y="-1084.4" font-family="Times,serif" font-size="14.00" style="">   </text>
<polygon fill="#445773" stroke="transparent" points="357.35,-1059 357.35,-1079 382.35,-1079 382.35,-1059 357.35,-1059" style=""/>
<text text-anchor="start" x="359.35" y="-1064.4" font-family="Times,serif" font-size="14.00" style="">   </text>
<polygon fill="none" stroke="#e8726d" points="359.35,-1041 359.35,-1057 380.35,-1057 380.35,-1041 359.35,-1041" style=""/>
</g>
<!-- key&#45;&gt;key2 -->
<g id="edge16" class="edge" data-name="key-&gt;key2">

<path fill="none" stroke="#1bc6a6" stroke-width="2" d="M179.42,-1109C254.52,-1109 275.83,-1109 346.1,-1109" style=""/>
<polygon fill="#1bc6a6" stroke="#1bc6a6" stroke-width="2" points="346.35,-1112.5 356.35,-1109 346.35,-1105.5 346.35,-1112.5" style=""/>
</g>
<!-- key&#45;&gt;key2 -->
<g id="edge17" class="edge" data-name="key-&gt;key2">

<path fill="none" stroke="white" stroke-width="2" d="M179.42,-1089C254.52,-1089 275.83,-1089 346.1,-1089" style=""/>
<polygon fill="white" stroke="white" stroke-width="2" points="346.35,-1092.5 356.35,-1089 346.35,-1085.5 346.35,-1092.5" style=""/>
</g>
</g>
</svg>